<svg width="802" height="116" viewBox="0 0 802 116" fill="none" xmlns="http://www.w3.org/2000/svg">
<path d="M39.936 106.32C15.104 106.32 0 88.656 0 58.448C0 30.8 17.536 9.67999 43.392 9.67999C64.384 9.67999 80.384 22.096 81.92 39.76H62.72C60.544 30.544 52.608 24.784 43.136 24.784C28.544 24.784 19.456 38.224 19.456 58.96C19.456 78.672 28.16 91.216 42.24 91.216C53.12 91.216 63.488 84.176 63.488 70.608V68.56H44.672V53.072H81.408V104.528H65.536V93.904C60.928 101.584 50.304 106.32 39.936 106.32Z" fill="black"/>
<path d="M92.628 104.528V38.48H109.396V47.184C114.132 40.912 121.94 37.328 130.26 37.328C149.204 37.328 152.404 50.768 152.404 67.792V104.528H134.356V67.92C134.356 58.192 132.692 50.896 123.732 50.896C115.284 50.896 110.676 56.528 110.676 71.888V104.528H92.628Z" fill="black"/>
<path d="M193.359 106.32C172.879 106.32 159.823 92.624 159.823 71.504C159.823 50.384 172.879 36.688 193.359 36.688C213.967 36.688 227.023 50.512 227.023 71.504C227.023 92.624 213.967 106.32 193.359 106.32ZM193.359 92.624C203.087 92.624 208.207 84.56 208.207 71.504C208.207 58.192 203.087 50.384 193.359 50.384C183.759 50.384 178.639 58.32 178.639 71.504C178.639 84.56 183.759 92.624 193.359 92.624Z" fill="black"/>
<path d="M261.822 106.32C242.75 106.32 231.742 98.768 231.486 83.408H249.918C249.918 90.448 253.886 93.776 261.694 93.776C267.838 93.776 272.318 91.088 272.318 86.864C272.318 82.256 267.582 80.336 261.566 78.8C256.062 77.392 249.278 76.24 243.774 73.552C237.63 70.608 232.766 65.872 232.766 57.424C232.766 44.752 243.902 36.688 261.438 36.688C279.614 36.688 289.726 44.24 289.726 58.704H271.806C271.422 51.536 267.838 49.232 260.798 49.232C255.038 49.232 251.198 51.664 251.198 55.632C251.198 61.008 255.678 62.288 271.55 65.616C284.99 68.432 291.262 74.96 291.262 84.944C291.262 98.128 280.126 106.32 261.822 106.32Z" fill="black"/>
<path d="M299.888 104.528V38.48H317.936V104.528H299.888ZM299.888 29.008V11.6H317.936V29.008H299.888Z" fill="black"/>
<path d="M356.547 106.32C337.475 106.32 326.467 98.768 326.211 83.408H344.643C344.643 90.448 348.611 93.776 356.419 93.776C362.563 93.776 367.043 91.088 367.043 86.864C367.043 82.256 362.307 80.336 356.291 78.8C350.787 77.392 344.003 76.24 338.499 73.552C332.355 70.608 327.491 65.872 327.491 57.424C327.491 44.752 338.627 36.688 356.163 36.688C374.339 36.688 384.451 44.24 384.451 58.704H366.531C366.147 51.536 362.563 49.232 355.523 49.232C349.763 49.232 345.923 51.664 345.923 55.632C345.923 61.008 350.403 62.288 366.275 65.616C379.715 68.432 385.987 74.96 385.987 84.944C385.987 98.128 374.851 106.32 356.547 106.32Z" fill="black"/>
<path d="M499.397 50.9501C499.397 47.4415 498.243 44.251 496.246 41.7211L475.111 62.846C477.685 64.8425 480.88 65.9973 484.345 65.9973C492.693 65.9924 499.441 59.2493 499.397 50.9501ZM436.53 65.9484C428.226 65.9924 421.478 59.2444 421.478 50.9012C421.478 47.4415 422.633 44.2461 424.629 41.6722L445.764 62.797C443.234 64.7935 440.039 65.9484 436.53 65.9484ZM420.191 37.322C417.083 41.0507 415.219 45.7533 415.219 50.9892C415.219 62.7481 424.766 72.2902 436.53 72.2902C441.722 72.2902 446.474 70.4258 450.203 67.3185L460.46 77.5702L470.716 67.3185C474.445 70.4258 479.153 72.2902 484.389 72.2902C496.153 72.2902 505.7 62.7481 505.7 50.9892C505.7 45.7973 503.836 41.0459 500.728 37.322L505.524 32.5313L510.095 27.9609C515.424 36.7446 518.487 46.9962 518.487 58.0064C518.487 90.0484 492.517 115.969 460.504 115.969C428.495 115.969 402.52 90.0043 402.52 58.0064C402.432 46.9571 405.495 36.7054 410.825 27.9609L420.191 37.322ZM460.504 68.6985L506.503 22.7201C505.216 21.0759 503.841 19.4806 502.417 17.9735C491.852 6.92416 476.975 0 460.46 0C443.944 0 429.028 6.92416 418.502 17.9735C417.039 19.4366 415.659 21.0808 414.504 22.676L460.504 68.6985ZM496.114 22.3237L460.464 57.9623L424.815 22.3237C434.269 12.7816 446.88 7.54563 460.464 7.54563C474.049 7.54563 486.611 12.7816 496.114 22.3237Z" fill="black"/>
<path d="M533.487 103.568V10.64H552.559V87.696H595.183V103.568H533.487Z" fill="black"/>
<path d="M624.818 104.848C610.226 104.848 600.754 98.32 600.754 85.392C600.754 65.808 624.306 63.888 644.53 61.84V58.512C644.53 51.856 640.562 48.144 633.906 48.144C626.354 48.144 622.258 51.856 621.874 57.744H603.186C604.082 43.536 615.858 35.728 634.034 35.728C643.762 35.728 650.674 37.776 655.794 42.64C661.042 47.632 662.066 53.264 662.066 65.552V80.784C662.066 90 662.578 98.064 663.858 103.568H647.602C647.09 100.496 646.834 97.808 646.706 95.248C641.202 101.392 635.698 104.848 624.818 104.848ZM629.682 92.56C639.154 92.56 644.53 87.44 644.53 75.536V73.36C631.858 75.024 619.57 75.152 619.57 84.88C619.57 89.872 623.794 92.56 629.682 92.56Z" fill="black"/>
<path d="M709.737 104.72C702.057 104.72 694.377 101.136 689.641 94.608V103.568H672.873V10.64H690.921V45.072C695.145 39.056 702.569 36.24 709.737 36.24C726.377 36.24 737.257 48.528 737.257 70.416C737.257 91.792 725.993 104.72 709.737 104.72ZM704.617 91.024C713.321 91.024 718.697 82.704 718.697 70.416C718.697 57.872 713.321 49.936 704.105 49.936C695.657 49.936 690.409 58.128 690.409 70.416C690.409 83.472 695.913 91.024 704.617 91.024Z" fill="black"/>
<path d="M772.282 105.36C753.21 105.36 742.202 97.808 741.946 82.448H760.378C760.378 89.488 764.346 92.816 772.154 92.816C778.298 92.816 782.778 90.128 782.778 85.904C782.778 81.296 778.042 79.376 772.026 77.84C766.522 76.432 759.738 75.28 754.234 72.592C748.09 69.648 743.226 64.912 743.226 56.464C743.226 43.792 754.362 35.728 771.898 35.728C790.074 35.728 800.186 43.28 800.186 57.744H782.266C781.882 50.576 778.298 48.272 771.258 48.272C765.498 48.272 761.658 50.704 761.658 54.672C761.658 60.048 766.138 61.328 782.01 64.656C795.45 67.472 801.722 74 801.722 83.984C801.722 97.168 790.586 105.36 772.282 105.36Z" fill="black"/>
</svg>
